<mxfile host="65bd71144e">
    <diagram id="tUiF53IZ7HzYKF3YZL0W" name="Page-1">
        <mxGraphModel dx="1945" dy="782" grid="1" gridSize="10" guides="1" tooltips="1" connect="1" arrows="1" fold="1" page="1" pageScale="1" pageWidth="827" pageHeight="1169" math="0" shadow="0">
            <root>
                <mxCell id="0"/>
                <mxCell id="1" parent="0"/>
                <mxCell id="4" style="edgeStyle=none;html=1;entryX=0.5;entryY=0;entryDx=0;entryDy=0;" parent="1" source="2" target="3" edge="1">
                    <mxGeometry relative="1" as="geometry"/>
                </mxCell>
                <mxCell id="2" value="Début de la&lt;br&gt;666ième routes" style="rounded=1;whiteSpace=wrap;html=1;" parent="1" vertex="1">
                    <mxGeometry x="354" y="40" width="120" height="60" as="geometry"/>
                </mxCell>
                <mxCell id="7" style="edgeStyle=none;html=1;entryX=1;entryY=0.5;entryDx=0;entryDy=0;startArrow=none;" parent="1" source="9" target="5" edge="1">
                    <mxGeometry relative="1" as="geometry">
                        <Array as="points"/>
                    </mxGeometry>
                </mxCell>
                <mxCell id="8" style="edgeStyle=none;html=1;exitX=1;exitY=0.5;exitDx=0;exitDy=0;entryX=0.5;entryY=0;entryDx=0;entryDy=0;startArrow=none;" parent="1" source="15" target="30" edge="1">
                    <mxGeometry relative="1" as="geometry">
                        <mxPoint x="590" y="200" as="targetPoint"/>
                        <Array as="points">
                            <mxPoint x="550" y="120"/>
                            <mxPoint x="650" y="120"/>
                        </Array>
                    </mxGeometry>
                </mxCell>
                <mxCell id="130" style="edgeStyle=none;html=1;exitX=0.5;exitY=1;exitDx=0;exitDy=0;entryX=0.5;entryY=0;entryDx=0;entryDy=0;fontSize=10;startArrow=none;" parent="1" source="131" target="129" edge="1">
                    <mxGeometry relative="1" as="geometry"/>
                </mxCell>
                <mxCell id="3" value="où&amp;nbsp;&lt;br&gt;aller" style="rhombus;whiteSpace=wrap;html=1;" parent="1" vertex="1">
                    <mxGeometry x="373" y="160" width="80" height="80" as="geometry"/>
                </mxCell>
                <mxCell id="46" style="edgeStyle=none;html=1;exitX=0.5;exitY=1;exitDx=0;exitDy=0;entryX=0.5;entryY=0;entryDx=0;entryDy=0;fontSize=10;startArrow=none;" parent="1" source="47" target="45" edge="1">
                    <mxGeometry relative="1" as="geometry"/>
                </mxCell>
                <mxCell id="5" value="&lt;p style=&quot;line-height: 1 ; font-size: 10px&quot;&gt;Il n'y a plus de monstres&lt;br&gt;et les environs sont plein de tas de poussières&lt;br&gt;&lt;/p&gt;" style="rounded=1;whiteSpace=wrap;html=1;" parent="1" vertex="1">
                    <mxGeometry x="120" y="170" width="120" height="60" as="geometry"/>
                </mxCell>
                <mxCell id="18" style="edgeStyle=none;html=1;fontSize=10;startArrow=none;" parent="1" target="17" edge="1">
                    <mxGeometry relative="1" as="geometry">
                        <mxPoint x="650" y="310" as="sourcePoint"/>
                    </mxGeometry>
                </mxCell>
                <mxCell id="20" style="edgeStyle=none;html=1;exitX=1;exitY=0.5;exitDx=0;exitDy=0;entryX=0.5;entryY=0;entryDx=0;entryDy=0;fontSize=10;startArrow=none;" parent="1" source="21" target="19" edge="1">
                    <mxGeometry relative="1" as="geometry">
                        <Array as="points">
                            <mxPoint x="800" y="140"/>
                            <mxPoint x="900" y="140"/>
                        </Array>
                    </mxGeometry>
                </mxCell>
                <mxCell id="9" value="Tuer&amp;nbsp;&lt;br&gt;des&lt;br&gt;Monstres" style="text;html=1;strokeColor=none;fillColor=none;align=center;verticalAlign=middle;whiteSpace=wrap;rounded=0;" parent="1" vertex="1">
                    <mxGeometry x="280" y="185" width="60" height="30" as="geometry"/>
                </mxCell>
                <mxCell id="14" value="" style="endArrow=none;html=1;exitX=1;exitY=0.5;exitDx=0;exitDy=0;entryX=0;entryY=0.5;entryDx=0;entryDy=0;" parent="1" source="9" target="3" edge="1">
                    <mxGeometry width="50" height="50" relative="1" as="geometry">
                        <mxPoint x="320" y="270" as="sourcePoint"/>
                        <mxPoint x="370" y="220" as="targetPoint"/>
                    </mxGeometry>
                </mxCell>
                <mxCell id="15" value="Directement&lt;br&gt;aller à la&lt;br&gt;sortie de la caverne" style="text;html=1;strokeColor=none;fillColor=none;align=center;verticalAlign=middle;whiteSpace=wrap;rounded=0;" parent="1" vertex="1">
                    <mxGeometry x="490" y="185" width="60" height="30" as="geometry"/>
                </mxCell>
                <mxCell id="16" value="" style="edgeStyle=none;html=1;exitX=1;exitY=0.5;exitDx=0;exitDy=0;entryX=0;entryY=0.5;entryDx=0;entryDy=0;endArrow=none;" parent="1" source="3" target="15" edge="1">
                    <mxGeometry relative="1" as="geometry">
                        <mxPoint x="453" y="200" as="sourcePoint"/>
                        <mxPoint x="590" y="200" as="targetPoint"/>
                    </mxGeometry>
                </mxCell>
                <mxCell id="32" style="edgeStyle=none;html=1;exitX=1;exitY=0.5;exitDx=0;exitDy=0;entryX=0.5;entryY=0;entryDx=0;entryDy=0;fontSize=7;startArrow=none;" parent="1" source="33" target="31" edge="1">
                    <mxGeometry relative="1" as="geometry">
                        <Array as="points">
                            <mxPoint x="800" y="410"/>
                            <mxPoint x="900" y="410"/>
                        </Array>
                    </mxGeometry>
                </mxCell>
                <mxCell id="37" style="edgeStyle=none;html=1;exitX=0.5;exitY=1;exitDx=0;exitDy=0;entryX=0.5;entryY=0;entryDx=0;entryDy=0;fontSize=8;startArrow=none;" parent="1" source="38" target="36" edge="1">
                    <mxGeometry relative="1" as="geometry"/>
                </mxCell>
                <mxCell id="17" value="&lt;div&gt;&lt;span style=&quot;font-size: 7px&quot;&gt;Vous vous retrouver&lt;/span&gt;&lt;/div&gt;&lt;div&gt;&lt;span style=&quot;font-size: 7px&quot;&gt;&amp;nbsp;face à face avec une créature immense&lt;/span&gt;&lt;/div&gt;" style="rhombus;whiteSpace=wrap;html=1;fontSize=10;align=center;" parent="1" vertex="1">
                    <mxGeometry x="590" y="400" width="120" height="120" as="geometry"/>
                </mxCell>
                <mxCell id="24" style="edgeStyle=none;html=1;exitX=1;exitY=0.5;exitDx=0;exitDy=0;fontSize=10;startArrow=none;entryX=0.25;entryY=0;entryDx=0;entryDy=0;" parent="1" source="25" target="23" edge="1">
                    <mxGeometry relative="1" as="geometry">
                        <mxPoint x="1140" y="140" as="targetPoint"/>
                        <Array as="points">
                            <mxPoint x="1070" y="120"/>
                            <mxPoint x="1151" y="120"/>
                        </Array>
                    </mxGeometry>
                </mxCell>
                <mxCell id="124" style="edgeStyle=none;html=1;fontSize=10;entryX=1;entryY=0;entryDx=0;entryDy=0;startArrow=none;exitX=0;exitY=0.5;exitDx=0;exitDy=0;" parent="1" source="125" target="17" edge="1">
                    <mxGeometry relative="1" as="geometry">
                        <mxPoint x="900" y="360" as="targetPoint"/>
                        <mxPoint x="770" y="360" as="sourcePoint"/>
                        <Array as="points">
                            <mxPoint x="720" y="350"/>
                            <mxPoint x="720" y="430"/>
                        </Array>
                    </mxGeometry>
                </mxCell>
                <mxCell id="19" value="Vous vous retrouver face à Sans, quelque chose cloche" style="rounded=1;whiteSpace=wrap;html=1;fontSize=10;" parent="1" vertex="1">
                    <mxGeometry x="840" y="170" width="120" height="60" as="geometry"/>
                </mxCell>
                <mxCell id="21" value="Vous décidez&lt;br&gt;de faire demi-tour" style="text;html=1;strokeColor=none;fillColor=none;align=center;verticalAlign=middle;whiteSpace=wrap;rounded=0;fontSize=10;" parent="1" vertex="1">
                    <mxGeometry x="740" y="185" width="60" height="30" as="geometry"/>
                </mxCell>
                <mxCell id="22" value="" style="edgeStyle=none;html=1;exitX=1;exitY=0.5;exitDx=0;exitDy=0;entryX=0;entryY=0.5;entryDx=0;entryDy=0;fontSize=10;endArrow=none;" parent="1" source="30" target="21" edge="1">
                    <mxGeometry relative="1" as="geometry">
                        <mxPoint x="710" y="200" as="sourcePoint"/>
                        <mxPoint x="840" y="200" as="targetPoint"/>
                    </mxGeometry>
                </mxCell>
                <mxCell id="27" style="edgeStyle=none;html=1;fontSize=10;entryX=1;entryY=0.5;entryDx=0;entryDy=0;" parent="1" source="23" target="2" edge="1">
                    <mxGeometry relative="1" as="geometry">
                        <mxPoint x="800" y="60" as="targetPoint"/>
                        <Array as="points">
                            <mxPoint x="1181" y="70"/>
                        </Array>
                    </mxGeometry>
                </mxCell>
                <mxCell id="23" value="Sans se met à rire et ces yeux s'illumine d'une couleur comme vous le les aviez jamais vu avant et vous tue" style="rounded=1;whiteSpace=wrap;html=1;fontSize=10;fillColor=#a20025;fontColor=#ffffff;strokeColor=#6F0000;" parent="1" vertex="1">
                    <mxGeometry x="1121" y="170" width="120" height="60" as="geometry"/>
                </mxCell>
                <mxCell id="25" value="Vous vous approcher de lui" style="text;html=1;strokeColor=none;fillColor=none;align=center;verticalAlign=middle;whiteSpace=wrap;rounded=0;fontSize=10;" parent="1" vertex="1">
                    <mxGeometry x="1010" y="185" width="60" height="30" as="geometry"/>
                </mxCell>
                <mxCell id="26" value="" style="edgeStyle=none;html=1;exitX=1;exitY=0.5;exitDx=0;exitDy=0;entryX=0;entryY=0.5;entryDx=0;entryDy=0;fontSize=10;endArrow=none;" parent="1" source="19" target="25" edge="1">
                    <mxGeometry relative="1" as="geometry">
                        <mxPoint x="960" y="200" as="sourcePoint"/>
                        <mxPoint x="1121" y="200" as="targetPoint"/>
                    </mxGeometry>
                </mxCell>
                <mxCell id="28" value="&lt;font style=&quot;line-height: 1 ; font-size: 9px&quot;&gt;Vous pénétrer dans le labo d'Alphys&lt;/font&gt;" style="text;html=1;strokeColor=none;fillColor=none;align=center;verticalAlign=middle;whiteSpace=wrap;rounded=0;fontSize=10;" parent="1" vertex="1">
                    <mxGeometry x="620" y="270" width="60" height="30" as="geometry"/>
                </mxCell>
                <mxCell id="29" value="" style="edgeStyle=none;html=1;exitX=0.5;exitY=1;exitDx=0;exitDy=0;fontSize=10;endArrow=none;" parent="1" edge="1">
                    <mxGeometry relative="1" as="geometry">
                        <mxPoint x="650" y="230" as="sourcePoint"/>
                        <mxPoint x="650" y="260" as="targetPoint"/>
                    </mxGeometry>
                </mxCell>
                <mxCell id="30" value="&lt;font style=&quot;font-size: 9px&quot;&gt;Vous arrivez devant le labo d'Alphys???&lt;/font&gt;" style="rhombus;whiteSpace=wrap;html=1;fontSize=9;" parent="1" vertex="1">
                    <mxGeometry x="610" y="160" width="80" height="80" as="geometry"/>
                </mxCell>
                <mxCell id="35" style="edgeStyle=none;html=1;fontSize=8;" parent="1" source="31" edge="1">
                    <mxGeometry relative="1" as="geometry">
                        <mxPoint x="1180" y="70" as="targetPoint"/>
                        <Array as="points">
                            <mxPoint x="1200" y="460"/>
                            <mxPoint x="1310" y="460"/>
                            <mxPoint x="1310" y="70"/>
                        </Array>
                    </mxGeometry>
                </mxCell>
                <mxCell id="31" value="&lt;font size=&quot;1&quot;&gt;La créature vous attrape&lt;br&gt;et vous dévore&lt;br&gt;&lt;/font&gt;" style="rounded=1;whiteSpace=wrap;html=1;fontSize=7;fillColor=#a20025;fontColor=#ffffff;strokeColor=#6F0000;" parent="1" vertex="1">
                    <mxGeometry x="840" y="430" width="120" height="60" as="geometry"/>
                </mxCell>
                <mxCell id="33" value="&lt;font style=&quot;font-size: 14px&quot;&gt;Courir&lt;/font&gt;" style="text;html=1;strokeColor=none;fillColor=none;align=center;verticalAlign=middle;whiteSpace=wrap;rounded=0;fontSize=7;" parent="1" vertex="1">
                    <mxGeometry x="740" y="445" width="60" height="30" as="geometry"/>
                </mxCell>
                <mxCell id="34" value="" style="edgeStyle=none;html=1;exitX=1;exitY=0.5;exitDx=0;exitDy=0;entryX=0;entryY=0.5;entryDx=0;entryDy=0;fontSize=7;endArrow=none;" parent="1" source="17" target="33" edge="1">
                    <mxGeometry relative="1" as="geometry">
                        <mxPoint x="710" y="460" as="sourcePoint"/>
                        <mxPoint x="840" y="460" as="targetPoint"/>
                    </mxGeometry>
                </mxCell>
                <mxCell id="85" style="edgeStyle=none;html=1;entryX=0.5;entryY=0;entryDx=0;entryDy=0;fontFamily=Helvetica;fontSize=8;startArrow=none;" parent="1" target="84" edge="1">
                    <mxGeometry relative="1" as="geometry">
                        <mxPoint x="650" y="820" as="sourcePoint"/>
                    </mxGeometry>
                </mxCell>
                <mxCell id="36" value="&lt;font style=&quot;font-size: 10px&quot;&gt;La créature se dirige vers la sortie du labo&lt;/font&gt;" style="rounded=1;whiteSpace=wrap;html=1;fontSize=8;" parent="1" vertex="1">
                    <mxGeometry x="590" y="650" width="120" height="60" as="geometry"/>
                </mxCell>
                <mxCell id="38" value="&lt;span style=&quot;font-size: 10px&quot;&gt;Ne pas bouger&lt;/span&gt;" style="text;html=1;strokeColor=none;fillColor=none;align=center;verticalAlign=middle;whiteSpace=wrap;rounded=0;fontSize=8;" parent="1" vertex="1">
                    <mxGeometry x="620" y="560" width="60" height="30" as="geometry"/>
                </mxCell>
                <mxCell id="39" value="" style="edgeStyle=none;html=1;exitX=0.5;exitY=1;exitDx=0;exitDy=0;entryX=0.5;entryY=0;entryDx=0;entryDy=0;fontSize=8;endArrow=none;" parent="1" source="17" target="38" edge="1">
                    <mxGeometry relative="1" as="geometry">
                        <mxPoint x="650" y="520" as="sourcePoint"/>
                        <mxPoint x="650" y="650" as="targetPoint"/>
                    </mxGeometry>
                </mxCell>
                <mxCell id="50" style="edgeStyle=none;html=1;exitX=1;exitY=0.5;exitDx=0;exitDy=0;entryX=0.5;entryY=0;entryDx=0;entryDy=0;fontSize=9;startArrow=none;" parent="1" source="51" target="49" edge="1">
                    <mxGeometry relative="1" as="geometry">
                        <Array as="points">
                            <mxPoint x="330" y="380"/>
                            <mxPoint x="413" y="380"/>
                        </Array>
                    </mxGeometry>
                </mxCell>
                <mxCell id="54" style="edgeStyle=none;html=1;exitX=0.5;exitY=1;exitDx=0;exitDy=0;entryX=0.5;entryY=0;entryDx=0;entryDy=0;fontSize=9;startArrow=none;" parent="1" source="55" target="53" edge="1">
                    <mxGeometry relative="1" as="geometry"/>
                </mxCell>
                <mxCell id="121" style="edgeStyle=none;html=1;fontSize=10;entryX=0;entryY=0.5;entryDx=0;entryDy=0;startArrow=none;exitX=1;exitY=0.5;exitDx=0;exitDy=0;" parent="1" source="49" target="17" edge="1">
                    <mxGeometry relative="1" as="geometry">
                        <mxPoint x="350" y="550" as="targetPoint"/>
                        <mxPoint x="450" y="560" as="sourcePoint"/>
                        <Array as="points">
                            <mxPoint x="530" y="428"/>
                            <mxPoint x="530" y="460"/>
                        </Array>
                    </mxGeometry>
                </mxCell>
                <mxCell id="45" value="Porte vérouillée et deux chemins, que faire?" style="rhombus;whiteSpace=wrap;html=1;fontSize=10;fillColor=#6a00ff;fontColor=#ffffff;strokeColor=#3700CC;" parent="1" vertex="1">
                    <mxGeometry x="117.5" y="365" width="125" height="125" as="geometry"/>
                </mxCell>
                <mxCell id="47" value="&lt;font style=&quot;font-size: 12px&quot;&gt;Faire demi-tour&lt;/font&gt;" style="text;html=1;strokeColor=none;fillColor=none;align=center;verticalAlign=middle;whiteSpace=wrap;rounded=0;fontSize=10;" parent="1" vertex="1">
                    <mxGeometry x="150" y="280" width="60" height="30" as="geometry"/>
                </mxCell>
                <mxCell id="48" value="" style="edgeStyle=none;html=1;exitX=0.5;exitY=1;exitDx=0;exitDy=0;entryX=0.5;entryY=0;entryDx=0;entryDy=0;fontSize=10;endArrow=none;" parent="1" source="5" target="47" edge="1">
                    <mxGeometry relative="1" as="geometry">
                        <mxPoint x="180" y="230" as="sourcePoint"/>
                        <mxPoint x="180" y="365" as="targetPoint"/>
                    </mxGeometry>
                </mxCell>
                <mxCell id="49" value="La porte ne s'ouvre pas&lt;br&gt;car vous n'avez pas le code pour la dévérouiller" style="rounded=1;whiteSpace=wrap;html=1;fontSize=9;" parent="1" vertex="1">
                    <mxGeometry x="353" y="397.5" width="120" height="60" as="geometry"/>
                </mxCell>
                <mxCell id="51" value="Entrer le code" style="text;html=1;strokeColor=none;fillColor=none;align=center;verticalAlign=middle;whiteSpace=wrap;rounded=0;fontSize=9;" parent="1" vertex="1">
                    <mxGeometry x="270" y="412.5" width="60" height="30" as="geometry"/>
                </mxCell>
                <mxCell id="52" value="" style="edgeStyle=none;html=1;exitX=1;exitY=0.5;exitDx=0;exitDy=0;entryX=0;entryY=0.5;entryDx=0;entryDy=0;fontSize=9;endArrow=none;" parent="1" source="45" target="51" edge="1">
                    <mxGeometry relative="1" as="geometry">
                        <mxPoint x="242.5" y="427.5" as="sourcePoint"/>
                        <mxPoint x="353" y="427.5" as="targetPoint"/>
                    </mxGeometry>
                </mxCell>
                <mxCell id="74" style="edgeStyle=none;html=1;entryX=0.5;entryY=0;entryDx=0;entryDy=0;fontSize=9;startArrow=none;" parent="1" target="73" edge="1">
                    <mxGeometry relative="1" as="geometry">
                        <mxPoint x="180" y="820" as="sourcePoint"/>
                    </mxGeometry>
                </mxCell>
                <mxCell id="53" value="La porte se dévérouille&lt;br&gt;vous menant dans une salle étrange" style="rounded=1;whiteSpace=wrap;html=1;fontSize=9;" parent="1" vertex="1">
                    <mxGeometry x="120" y="640" width="120" height="60" as="geometry"/>
                </mxCell>
                <mxCell id="55" value="Entrer le code" style="text;html=1;strokeColor=none;fillColor=none;align=center;verticalAlign=middle;whiteSpace=wrap;rounded=0;fontSize=9;" parent="1" vertex="1">
                    <mxGeometry x="150" y="540" width="60" height="30" as="geometry"/>
                </mxCell>
                <mxCell id="56" value="" style="edgeStyle=none;html=1;exitX=0.5;exitY=1;exitDx=0;exitDy=0;entryX=0.5;entryY=0;entryDx=0;entryDy=0;fontSize=9;endArrow=none;" parent="1" source="45" target="55" edge="1">
                    <mxGeometry relative="1" as="geometry">
                        <mxPoint x="180" y="490" as="sourcePoint"/>
                        <mxPoint x="180" y="640" as="targetPoint"/>
                    </mxGeometry>
                </mxCell>
                <mxCell id="61" style="edgeStyle=none;html=1;exitX=0.5;exitY=0;exitDx=0;exitDy=0;entryX=0;entryY=0.5;entryDx=0;entryDy=0;fontSize=9;" parent="1" target="2" edge="1">
                    <mxGeometry relative="1" as="geometry">
                        <Array as="points">
                            <mxPoint x="-100" y="70"/>
                        </Array>
                        <mxPoint x="-100" y="397.5" as="sourcePoint"/>
                    </mxGeometry>
                </mxCell>
                <mxCell id="62" value="section secrète" style="rounded=1;whiteSpace=wrap;html=1;fontSize=9;fillColor=#008a00;fontColor=#ffffff;strokeColor=#005700;" parent="1" vertex="1">
                    <mxGeometry x="-150" y="400" width="120" height="60" as="geometry"/>
                </mxCell>
                <mxCell id="154" style="edgeStyle=none;html=1;entryX=0.75;entryY=0;entryDx=0;entryDy=0;exitX=0.5;exitY=0;exitDx=0;exitDy=0;" parent="1" source="70" target="62" edge="1">
                    <mxGeometry relative="1" as="geometry">
                        <mxPoint x="-70" y="370" as="targetPoint"/>
                        <mxPoint x="50" y="390" as="sourcePoint"/>
                        <Array as="points">
                            <mxPoint x="40" y="390"/>
                            <mxPoint x="10" y="390"/>
                            <mxPoint x="10" y="350"/>
                            <mxPoint x="-60" y="350"/>
                        </Array>
                    </mxGeometry>
                </mxCell>
                <mxCell id="70" value="Entrer le code secret" style="text;html=1;strokeColor=none;fillColor=none;align=center;verticalAlign=middle;whiteSpace=wrap;rounded=0;fontSize=9;" parent="1" vertex="1">
                    <mxGeometry x="10" y="412.5" width="60" height="30" as="geometry"/>
                </mxCell>
                <mxCell id="71" value="" style="edgeStyle=none;html=1;exitX=0;exitY=0.5;exitDx=0;exitDy=0;entryX=1;entryY=0.5;entryDx=0;entryDy=0;fontSize=9;endArrow=none;" parent="1" source="45" target="70" edge="1">
                    <mxGeometry relative="1" as="geometry">
                        <mxPoint x="148.75" y="458.75" as="sourcePoint"/>
                        <mxPoint x="-40" y="560" as="targetPoint"/>
                        <Array as="points"/>
                    </mxGeometry>
                </mxCell>
                <mxCell id="79" style="edgeStyle=none;html=1;exitX=0.5;exitY=0;exitDx=0;exitDy=0;fontFamily=Helvetica;fontSize=9;startArrow=none;entryX=0.5;entryY=0;entryDx=0;entryDy=0;" parent="1" source="81" target="78" edge="1">
                    <mxGeometry relative="1" as="geometry">
                        <mxPoint x="-80" y="860" as="targetPoint"/>
                        <Array as="points">
                            <mxPoint x="50" y="860"/>
                            <mxPoint x="-100" y="860"/>
                        </Array>
                    </mxGeometry>
                </mxCell>
                <mxCell id="89" style="edgeStyle=none;html=1;exitX=1;exitY=0.5;exitDx=0;exitDy=0;fontFamily=Helvetica;fontSize=8;startArrow=none;entryX=0.5;entryY=0;entryDx=0;entryDy=0;" parent="1" source="90" target="88" edge="1">
                    <mxGeometry relative="1" as="geometry">
                        <mxPoint x="360" y="880" as="targetPoint"/>
                        <Array as="points">
                            <mxPoint x="300" y="860"/>
                            <mxPoint x="390" y="860"/>
                        </Array>
                    </mxGeometry>
                </mxCell>
                <mxCell id="73" value="&lt;font face=&quot;windings&quot;&gt;*&amp;amp;$%&amp;amp;*&amp;amp;?&lt;/font&gt;&lt;br&gt;Vous dit l'homme mystérieux" style="rhombus;whiteSpace=wrap;html=1;fontSize=9;" parent="1" vertex="1">
                    <mxGeometry x="140" y="920" width="80" height="80" as="geometry"/>
                </mxCell>
                <mxCell id="75" value="&lt;font style=&quot;font-size: 9px&quot;&gt;Un homme qui semble fondre se tient dans le milieu de la salle&lt;/font&gt;" style="text;html=1;strokeColor=none;fillColor=none;align=center;verticalAlign=middle;whiteSpace=wrap;rounded=0;fontSize=9;" parent="1" vertex="1">
                    <mxGeometry x="150" y="770" width="60" height="30" as="geometry"/>
                </mxCell>
                <mxCell id="76" value="" style="edgeStyle=none;html=1;exitX=0.5;exitY=1;exitDx=0;exitDy=0;fontSize=9;endArrow=none;" parent="1" source="53" edge="1">
                    <mxGeometry relative="1" as="geometry">
                        <mxPoint x="180" y="700" as="sourcePoint"/>
                        <mxPoint x="180" y="760" as="targetPoint"/>
                    </mxGeometry>
                </mxCell>
                <mxCell id="83" style="edgeStyle=none;html=1;fontFamily=Helvetica;fontSize=8;exitX=0;exitY=0.5;exitDx=0;exitDy=0;" parent="1" source="78" edge="1">
                    <mxGeometry relative="1" as="geometry">
                        <mxPoint x="-100" y="370" as="targetPoint"/>
                        <Array as="points">
                            <mxPoint x="-200" y="960"/>
                            <mxPoint x="-200" y="370"/>
                        </Array>
                        <mxPoint x="-160" y="730" as="sourcePoint"/>
                    </mxGeometry>
                </mxCell>
                <mxCell id="78" value="&lt;font style=&quot;font-size: 8px&quot;&gt;Il ne bouge pas et ne semble pas avoir été blessé&lt;br&gt;vous senter votre corps devenir faible il vous a renvoyer l'attaque et vous mourrez&lt;/font&gt;" style="rounded=1;whiteSpace=wrap;html=1;fontFamily=Helvetica;fontSize=9;fillColor=#a20025;fontColor=#ffffff;strokeColor=#6F0000;" parent="1" vertex="1">
                    <mxGeometry x="-160" y="930" width="120" height="60" as="geometry"/>
                </mxCell>
                <mxCell id="81" value="L'attaquer" style="text;html=1;strokeColor=none;fillColor=none;align=center;verticalAlign=middle;whiteSpace=wrap;rounded=0;fontFamily=Helvetica;fontSize=9;" parent="1" vertex="1">
                    <mxGeometry x="20" y="945" width="60" height="30" as="geometry"/>
                </mxCell>
                <mxCell id="82" value="" style="edgeStyle=none;html=1;exitX=0;exitY=0.5;exitDx=0;exitDy=0;entryX=1;entryY=0.5;entryDx=0;entryDy=0;fontFamily=Helvetica;fontSize=9;endArrow=none;" parent="1" source="73" target="81" edge="1">
                    <mxGeometry relative="1" as="geometry">
                        <mxPoint x="140" y="960" as="sourcePoint"/>
                        <mxPoint x="-40" y="960" as="targetPoint"/>
                    </mxGeometry>
                </mxCell>
                <mxCell id="100" style="edgeStyle=none;html=1;entryX=0.5;entryY=0;entryDx=0;entryDy=0;fontSize=10;startArrow=none;" parent="1" target="99" edge="1">
                    <mxGeometry relative="1" as="geometry">
                        <mxPoint x="650" y="1060" as="sourcePoint"/>
                    </mxGeometry>
                </mxCell>
                <mxCell id="102" style="edgeStyle=none;html=1;exitX=1;exitY=0.5;exitDx=0;exitDy=0;entryX=0.25;entryY=0;entryDx=0;entryDy=0;fontSize=10;startArrow=none;" parent="1" source="103" target="101" edge="1">
                    <mxGeometry relative="1" as="geometry">
                        <Array as="points">
                            <mxPoint x="850" y="860"/>
                            <mxPoint x="950" y="860"/>
                        </Array>
                    </mxGeometry>
                </mxCell>
                <mxCell id="84" value="&lt;font style=&quot;font-size: 10px&quot;&gt;Vous arrivez&amp;nbsp;&lt;br&gt;devant une&amp;nbsp;&lt;br&gt;sorte de&lt;br&gt;trappe verouiller&lt;br&gt;&lt;br&gt;&amp;nbsp; &amp;nbsp; &amp;nbsp; &amp;nbsp;&lt;/font&gt;" style="rhombus;whiteSpace=wrap;html=1;fontFamily=Helvetica;fontSize=8;fillColor=#6a00ff;fontColor=#ffffff;strokeColor=#3700CC;" parent="1" vertex="1">
                    <mxGeometry x="582.5" y="855" width="135" height="135" as="geometry"/>
                </mxCell>
                <mxCell id="86" value="Vous prenez l'ascenceur du labo pour descendre dans le labo cacher" style="text;html=1;strokeColor=none;fillColor=none;align=center;verticalAlign=middle;whiteSpace=wrap;rounded=0;fontFamily=Helvetica;fontSize=8;" parent="1" vertex="1">
                    <mxGeometry x="620" y="770" width="60" height="30" as="geometry"/>
                </mxCell>
                <mxCell id="87" value="" style="edgeStyle=none;html=1;exitX=0.5;exitY=1;exitDx=0;exitDy=0;fontFamily=Helvetica;fontSize=8;endArrow=none;" parent="1" source="36" edge="1">
                    <mxGeometry relative="1" as="geometry">
                        <mxPoint x="650" y="710" as="sourcePoint"/>
                        <mxPoint x="650" y="760" as="targetPoint"/>
                    </mxGeometry>
                </mxCell>
                <mxCell id="95" style="edgeStyle=none;html=1;exitX=0.5;exitY=1;exitDx=0;exitDy=0;entryX=0.5;entryY=0;entryDx=0;entryDy=0;fontFamily=Helvetica;fontSize=8;startArrow=none;" parent="1" source="96" target="94" edge="1">
                    <mxGeometry relative="1" as="geometry"/>
                </mxCell>
                <mxCell id="88" value="L'homme mystérieux&amp;nbsp; vous montre qu'est-ce qui à causer les changements dans le continum espace temps" style="rounded=1;whiteSpace=wrap;html=1;fontFamily=Helvetica;fontSize=8;" parent="1" vertex="1">
                    <mxGeometry x="330" y="930" width="120" height="60" as="geometry"/>
                </mxCell>
                <mxCell id="90" value="Vous tentez de communiquer avec lui" style="text;html=1;strokeColor=none;fillColor=none;align=center;verticalAlign=middle;whiteSpace=wrap;rounded=0;fontFamily=Helvetica;fontSize=8;" parent="1" vertex="1">
                    <mxGeometry x="240" y="945" width="60" height="30" as="geometry"/>
                </mxCell>
                <mxCell id="91" value="" style="edgeStyle=none;html=1;exitX=1;exitY=0.5;exitDx=0;exitDy=0;entryX=0;entryY=0.5;entryDx=0;entryDy=0;fontFamily=Helvetica;fontSize=8;endArrow=none;" parent="1" source="73" target="90" edge="1">
                    <mxGeometry relative="1" as="geometry">
                        <mxPoint x="220" y="960" as="sourcePoint"/>
                        <mxPoint x="330" y="960" as="targetPoint"/>
                    </mxGeometry>
                </mxCell>
                <mxCell id="98" style="edgeStyle=none;html=1;fontFamily=Helvetica;fontSize=8;" parent="1" source="94" edge="1">
                    <mxGeometry relative="1" as="geometry">
                        <mxPoint x="-200" y="960" as="targetPoint"/>
                        <Array as="points">
                            <mxPoint x="-200" y="1120"/>
                        </Array>
                    </mxGeometry>
                </mxCell>
                <mxCell id="94" value="Vous sauvez&amp;nbsp; le monde des monstres et obtenez une clé rouge" style="rounded=1;whiteSpace=wrap;html=1;fontFamily=Helvetica;fontSize=8;fillColor=#008a00;fontColor=#ffffff;strokeColor=#005700;" parent="1" vertex="1">
                    <mxGeometry x="330" y="1090" width="120" height="60" as="geometry"/>
                </mxCell>
                <mxCell id="96" value="Vous décider de réinitialiser votre sauvegarde" style="text;html=1;strokeColor=none;fillColor=none;align=center;verticalAlign=middle;whiteSpace=wrap;rounded=0;fontFamily=Helvetica;fontSize=8;" parent="1" vertex="1">
                    <mxGeometry x="360" y="1020" width="60" height="30" as="geometry"/>
                </mxCell>
                <mxCell id="97" value="" style="edgeStyle=none;html=1;exitX=0.5;exitY=1;exitDx=0;exitDy=0;entryX=0.5;entryY=0;entryDx=0;entryDy=0;fontFamily=Helvetica;fontSize=8;endArrow=none;" parent="1" source="88" target="96" edge="1">
                    <mxGeometry relative="1" as="geometry">
                        <mxPoint x="390" y="990" as="sourcePoint"/>
                        <mxPoint x="390" y="1090" as="targetPoint"/>
                    </mxGeometry>
                </mxCell>
                <mxCell id="99" value="Vous êtes devant la porte de sortie du monde souterrain(obtention du code secret)" style="rounded=1;whiteSpace=wrap;html=1;fontSize=10;fillColor=#008a00;fontColor=#ffffff;strokeColor=#005700;" parent="1" vertex="1">
                    <mxGeometry x="590" y="1090" width="120" height="60" as="geometry"/>
                </mxCell>
                <mxCell id="110" style="edgeStyle=none;html=1;exitX=1;exitY=0.5;exitDx=0;exitDy=0;entryX=0;entryY=0.5;entryDx=0;entryDy=0;fontSize=10;startArrow=none;" parent="1" source="119" target="109" edge="1">
                    <mxGeometry relative="1" as="geometry"/>
                </mxCell>
                <mxCell id="113" style="edgeStyle=none;html=1;exitX=0.5;exitY=0;exitDx=0;exitDy=0;entryX=0.5;entryY=1;entryDx=0;entryDy=0;fontSize=10;startArrow=none;" parent="1" source="115" target="111" edge="1">
                    <mxGeometry relative="1" as="geometry"/>
                </mxCell>
                <mxCell id="114" style="edgeStyle=none;html=1;entryX=0.5;entryY=0;entryDx=0;entryDy=0;fontSize=10;startArrow=none;" parent="1" target="112" edge="1">
                    <mxGeometry relative="1" as="geometry">
                        <mxPoint x="980" y="1020" as="sourcePoint"/>
                    </mxGeometry>
                </mxCell>
                <mxCell id="101" value="En essayant d'ouvrir la porte la créature vous entends et vous chasse" style="rounded=1;whiteSpace=wrap;html=1;fontSize=10;" parent="1" vertex="1">
                    <mxGeometry x="920" y="892.5" width="120" height="60" as="geometry"/>
                </mxCell>
                <mxCell id="103" value="pas de clé" style="text;html=1;strokeColor=none;fillColor=none;align=center;verticalAlign=middle;whiteSpace=wrap;rounded=0;fontSize=10;" parent="1" vertex="1">
                    <mxGeometry x="790" y="907.5" width="60" height="30" as="geometry"/>
                </mxCell>
                <mxCell id="104" value="" style="edgeStyle=none;html=1;exitX=1;exitY=0.5;exitDx=0;exitDy=0;entryX=0;entryY=0.5;entryDx=0;entryDy=0;fontSize=10;endArrow=none;" parent="1" source="84" target="103" edge="1">
                    <mxGeometry relative="1" as="geometry">
                        <mxPoint x="717.5" y="922.5000000000002" as="sourcePoint"/>
                        <mxPoint x="920" y="922.4999999999998" as="targetPoint"/>
                    </mxGeometry>
                </mxCell>
                <mxCell id="105" value="dévérouiller la porte avec la clé rouge" style="text;html=1;strokeColor=none;fillColor=none;align=center;verticalAlign=middle;whiteSpace=wrap;rounded=0;fontSize=10;" parent="1" vertex="1">
                    <mxGeometry x="620" y="1020" width="60" height="30" as="geometry"/>
                </mxCell>
                <mxCell id="106" value="" style="edgeStyle=none;html=1;exitX=0.5;exitY=1;exitDx=0;exitDy=0;fontSize=10;endArrow=none;" parent="1" source="84" edge="1">
                    <mxGeometry relative="1" as="geometry">
                        <mxPoint x="650" y="990.0000000000002" as="sourcePoint"/>
                        <mxPoint x="650" y="1010" as="targetPoint"/>
                    </mxGeometry>
                </mxCell>
                <mxCell id="135" style="edgeStyle=none;html=1;exitX=0.5;exitY=0;exitDx=0;exitDy=0;fontSize=10;startArrow=none;entryX=0.25;entryY=0;entryDx=0;entryDy=0;" parent="1" source="136" target="134" edge="1">
                    <mxGeometry relative="1" as="geometry">
                        <mxPoint x="1190" y="630" as="targetPoint"/>
                        <Array as="points">
                            <mxPoint x="1160" y="780"/>
                            <mxPoint x="1160" y="610"/>
                            <mxPoint x="1227" y="610"/>
                        </Array>
                    </mxGeometry>
                </mxCell>
                <mxCell id="139" style="edgeStyle=none;html=1;exitX=0.5;exitY=1;exitDx=0;exitDy=0;entryX=0.5;entryY=0;entryDx=0;entryDy=0;fontSize=10;startArrow=none;" parent="1" source="140" target="138" edge="1">
                    <mxGeometry relative="1" as="geometry"/>
                </mxCell>
                <mxCell id="109" value="La créature&amp;nbsp;&lt;br&gt;murmure des&amp;nbsp;&lt;br&gt;chiffres&lt;br&gt;(code)" style="rhombus;whiteSpace=wrap;html=1;fontSize=10;fillColor=#1ba1e2;fontColor=#ffffff;strokeColor=#006EAF;" parent="1" vertex="1">
                    <mxGeometry x="1201" y="866.25" width="112.5" height="112.5" as="geometry"/>
                </mxCell>
                <mxCell id="111" value="La créature vous rattrape et vous tue" style="rounded=1;whiteSpace=wrap;html=1;fontSize=10;fillColor=#a20025;fontColor=#ffffff;strokeColor=#6F0000;" parent="1" vertex="1">
                    <mxGeometry x="920" y="780" width="120" height="60" as="geometry"/>
                </mxCell>
                <mxCell id="142" style="edgeStyle=none;html=1;exitX=0.5;exitY=1;exitDx=0;exitDy=0;fontSize=10;" parent="1" source="112" edge="1">
                    <mxGeometry relative="1" as="geometry">
                        <mxPoint x="1310" y="460" as="targetPoint"/>
                        <Array as="points">
                            <mxPoint x="980" y="1160"/>
                            <mxPoint x="1400" y="1160"/>
                            <mxPoint x="1400" y="460"/>
                        </Array>
                    </mxGeometry>
                </mxCell>
                <mxCell id="112" value="Le monstre vous attrape et vous tue" style="rounded=1;whiteSpace=wrap;html=1;fontSize=10;fillColor=#a20025;fontColor=#ffffff;strokeColor=#6F0000;" parent="1" vertex="1">
                    <mxGeometry x="920" y="1060" width="120" height="60" as="geometry"/>
                </mxCell>
                <mxCell id="115" value="courir" style="text;html=1;strokeColor=none;fillColor=none;align=center;verticalAlign=middle;whiteSpace=wrap;rounded=0;fontSize=10;" parent="1" vertex="1">
                    <mxGeometry x="950" y="867" width="60" height="30" as="geometry"/>
                </mxCell>
                <mxCell id="116" value="" style="edgeStyle=none;html=1;exitX=0.5;exitY=0;exitDx=0;exitDy=0;entryX=0.5;entryY=1;entryDx=0;entryDy=0;fontSize=10;endArrow=none;" parent="1" source="101" target="115" edge="1">
                    <mxGeometry relative="1" as="geometry">
                        <mxPoint x="980" y="892.4999999999998" as="sourcePoint"/>
                        <mxPoint x="980" y="840" as="targetPoint"/>
                    </mxGeometry>
                </mxCell>
                <mxCell id="117" value="continuer d'essayer d'ouvrir la porte" style="text;html=1;strokeColor=none;fillColor=none;align=center;verticalAlign=middle;whiteSpace=wrap;rounded=0;fontSize=10;" parent="1" vertex="1">
                    <mxGeometry x="950" y="980" width="60" height="30" as="geometry"/>
                </mxCell>
                <mxCell id="118" value="" style="edgeStyle=none;html=1;exitX=0.5;exitY=1;exitDx=0;exitDy=0;fontSize=10;endArrow=none;" parent="1" source="101" edge="1">
                    <mxGeometry relative="1" as="geometry">
                        <mxPoint x="980" y="952.4999999999998" as="sourcePoint"/>
                        <mxPoint x="980" y="970" as="targetPoint"/>
                    </mxGeometry>
                </mxCell>
                <mxCell id="119" value="Tentez de la&amp;nbsp;&lt;br&gt;combattre" style="text;html=1;strokeColor=none;fillColor=none;align=center;verticalAlign=middle;whiteSpace=wrap;rounded=0;fontSize=10;" parent="1" vertex="1">
                    <mxGeometry x="1090" y="907.5" width="60" height="30" as="geometry"/>
                </mxCell>
                <mxCell id="120" value="" style="edgeStyle=none;html=1;exitX=1;exitY=0.5;exitDx=0;exitDy=0;entryX=0;entryY=0.5;entryDx=0;entryDy=0;fontSize=10;endArrow=none;" parent="1" source="101" target="119" edge="1">
                    <mxGeometry relative="1" as="geometry">
                        <mxPoint x="1040" y="922.5000000000002" as="sourcePoint"/>
                        <mxPoint x="1201" y="922.5000000000002" as="targetPoint"/>
                    </mxGeometry>
                </mxCell>
                <mxCell id="125" value="Ne pas s'approcher et passez par un autre chemin" style="text;html=1;strokeColor=none;fillColor=none;align=center;verticalAlign=middle;whiteSpace=wrap;rounded=0;fontSize=10;" parent="1" vertex="1">
                    <mxGeometry x="810" y="335" width="60" height="30" as="geometry"/>
                </mxCell>
                <mxCell id="128" value="" style="endArrow=none;html=1;fontSize=10;entryX=0.5;entryY=1;entryDx=0;entryDy=0;exitX=1;exitY=0.5;exitDx=0;exitDy=0;" parent="1" source="125" target="19" edge="1">
                    <mxGeometry width="50" height="50" relative="1" as="geometry">
                        <mxPoint x="900" y="350" as="sourcePoint"/>
                        <mxPoint x="930" y="380" as="targetPoint"/>
                        <Array as="points">
                            <mxPoint x="900" y="350"/>
                        </Array>
                    </mxGeometry>
                </mxCell>
                <mxCell id="129" value="Prendre une pause des écrans est une excellente&amp;nbsp;&lt;br&gt;chose" style="rounded=1;whiteSpace=wrap;html=1;fontSize=10;fillColor=#008a00;fontColor=#ffffff;strokeColor=#005700;" parent="1" vertex="1">
                    <mxGeometry x="353" y="310" width="120" height="60" as="geometry"/>
                </mxCell>
                <mxCell id="131" value="Éteindre la console" style="text;html=1;strokeColor=none;fillColor=none;align=center;verticalAlign=middle;whiteSpace=wrap;rounded=0;fontSize=10;" parent="1" vertex="1">
                    <mxGeometry x="383" y="260" width="60" height="30" as="geometry"/>
                </mxCell>
                <mxCell id="132" value="" style="edgeStyle=none;html=1;exitX=0.5;exitY=1;exitDx=0;exitDy=0;entryX=0.5;entryY=0;entryDx=0;entryDy=0;fontSize=10;endArrow=none;" parent="1" source="3" target="131" edge="1">
                    <mxGeometry relative="1" as="geometry">
                        <mxPoint x="413" y="240" as="sourcePoint"/>
                        <mxPoint x="413" y="310" as="targetPoint"/>
                    </mxGeometry>
                </mxCell>
                <mxCell id="144" style="edgeStyle=none;html=1;fontSize=10;startArrow=none;exitX=0.5;exitY=0;exitDx=0;exitDy=0;" parent="1" source="156" edge="1">
                    <mxGeometry relative="1" as="geometry">
                        <mxPoint x="1257" y="460" as="targetPoint"/>
                        <mxPoint x="1257" y="510" as="sourcePoint"/>
                    </mxGeometry>
                </mxCell>
                <mxCell id="134" value="Vous finissez par réussir à tuer la créature" style="rounded=1;whiteSpace=wrap;html=1;fontSize=10;" parent="1" vertex="1">
                    <mxGeometry x="1197.25" y="660" width="120" height="60" as="geometry"/>
                </mxCell>
                <mxCell id="136" value="Continuer à attaquer" style="text;html=1;strokeColor=none;fillColor=none;align=center;verticalAlign=middle;whiteSpace=wrap;rounded=0;fontSize=10;" parent="1" vertex="1">
                    <mxGeometry x="1227.25" y="780" width="60" height="30" as="geometry"/>
                </mxCell>
                <mxCell id="137" value="" style="edgeStyle=none;html=1;exitX=0.5;exitY=0;exitDx=0;exitDy=0;entryX=0.5;entryY=1;entryDx=0;entryDy=0;fontSize=10;endArrow=none;" parent="1" source="109" target="136" edge="1">
                    <mxGeometry relative="1" as="geometry">
                        <mxPoint x="1257.25" y="866.25" as="sourcePoint"/>
                        <mxPoint x="1257.25" y="720" as="targetPoint"/>
                    </mxGeometry>
                </mxCell>
                <mxCell id="143" style="edgeStyle=none;html=1;exitX=0.5;exitY=1;exitDx=0;exitDy=0;fontSize=10;" parent="1" source="138" edge="1">
                    <mxGeometry relative="1" as="geometry">
                        <mxPoint x="1257" y="1160" as="targetPoint"/>
                    </mxGeometry>
                </mxCell>
                <mxCell id="138" value="La créature se téléporte devant vous et vous tue" style="rounded=1;whiteSpace=wrap;html=1;fontSize=10;fillColor=#a20025;fontColor=#ffffff;strokeColor=#6F0000;" parent="1" vertex="1">
                    <mxGeometry x="1197.25" y="1060" width="120" height="60" as="geometry"/>
                </mxCell>
                <mxCell id="140" value="Fuir" style="text;html=1;strokeColor=none;fillColor=none;align=center;verticalAlign=middle;whiteSpace=wrap;rounded=0;fontSize=10;" parent="1" vertex="1">
                    <mxGeometry x="1227.25" y="1000" width="60" height="30" as="geometry"/>
                </mxCell>
                <mxCell id="141" value="" style="edgeStyle=none;html=1;exitX=0.5;exitY=1;exitDx=0;exitDy=0;entryX=0.5;entryY=0;entryDx=0;entryDy=0;fontSize=10;endArrow=none;" parent="1" source="109" target="140" edge="1">
                    <mxGeometry relative="1" as="geometry">
                        <mxPoint x="1257.25" y="978.75" as="sourcePoint"/>
                        <mxPoint x="1257.25" y="1060" as="targetPoint"/>
                    </mxGeometry>
                </mxCell>
                <mxCell id="148" value="" style="edgeStyle=none;html=1;exitX=0.5;exitY=0;exitDx=0;exitDy=0;fontSize=10;endArrow=none;entryX=0.5;entryY=1;entryDx=0;entryDy=0;" parent="1" source="134" target="156" edge="1">
                    <mxGeometry relative="1" as="geometry">
                        <mxPoint x="1257" y="610" as="targetPoint"/>
                        <mxPoint x="1257.25" y="660" as="sourcePoint"/>
                    </mxGeometry>
                </mxCell>
                <mxCell id="150" value="&amp;nbsp; &amp;nbsp; &amp;nbsp;" style="text;html=1;align=center;verticalAlign=middle;resizable=0;points=[];autosize=1;strokeColor=none;fillColor=none;fontSize=10;" parent="1" vertex="1">
                    <mxGeometry x="-595" y="70" width="30" height="20" as="geometry"/>
                </mxCell>
                <mxCell id="152" value="&lt;font style=&quot;font-size: 26px&quot;&gt;Genre: horreur&lt;br&gt;Inspiration: undertale&lt;br&gt;Nom: 666ième route&lt;br&gt;&lt;/font&gt;" style="text;html=1;align=center;verticalAlign=middle;resizable=0;points=[];autosize=1;strokeColor=none;fillColor=none;fontSize=10;" parent="1" vertex="1">
                    <mxGeometry x="-610" y="40" width="260" height="60" as="geometry"/>
                </mxCell>
                <mxCell id="153" value="Deux couleurs de l'interface: Noir et gris&lt;br&gt;Couleur des boutons et du textes: gris bleuté et gris foncé&amp;nbsp;&lt;br&gt;L'état de survol: rouge" style="text;html=1;align=center;verticalAlign=middle;resizable=0;points=[];autosize=1;strokeColor=none;fillColor=none;fontSize=26;" parent="1" vertex="1">
                    <mxGeometry x="-825" y="120" width="690" height="100" as="geometry"/>
                </mxCell>
                <mxCell id="156" value="&lt;span style=&quot;font-size: 10px&quot;&gt;La créature n'était pas réellement morte et vous tue&lt;/span&gt;" style="rounded=1;whiteSpace=wrap;html=1;fillColor=#a20025;fontColor=#ffffff;strokeColor=#6F0000;" parent="1" vertex="1">
                    <mxGeometry x="1197.25" y="525" width="120" height="60" as="geometry"/>
                </mxCell>
                <mxCell id="158" value="&lt;font style=&quot;font-size: 25px&quot;&gt;&lt;font color=&quot;#ff3333&quot;&gt;L&lt;/font&gt;&lt;font color=&quot;#ffff66&quot;&gt;é&lt;/font&gt;&lt;font color=&quot;#99ff99&quot;&gt;g&lt;/font&gt;&lt;font color=&quot;#99ffff&quot;&gt;e&lt;/font&gt;&lt;font color=&quot;#9999ff&quot;&gt;n&lt;/font&gt;&lt;font color=&quot;#ff99ff&quot;&gt;d&lt;/font&gt;&lt;font color=&quot;#99ffcc&quot;&gt;e&lt;/font&gt;&lt;br&gt;&lt;font color=&quot;#00ff00&quot;&gt;Vert &lt;/font&gt;= bonne fin&lt;br&gt;&lt;font color=&quot;#cc0000&quot;&gt;rouge&lt;/font&gt; = mort&lt;br&gt;&lt;font color=&quot;#b266ff&quot;&gt;Mauve&lt;/font&gt;&lt;font color=&quot;#6600cc&quot;&gt; &lt;/font&gt;= choix avec objet sauvegarder&lt;br&gt;&lt;font color=&quot;#00cccc&quot;&gt;bleu cyan&lt;/font&gt; = objet sauvegarder&lt;/font&gt;" style="text;html=1;align=center;verticalAlign=middle;resizable=0;points=[];autosize=1;strokeColor=none;fillColor=none;" parent="1" vertex="1">
                    <mxGeometry x="-700" y="290" width="440" height="100" as="geometry"/>
                </mxCell>
            </root>
        </mxGraphModel>
    </diagram>
</mxfile>